<?xml version="1.0" encoding="utf-8"?>
<!-- Generator: Adobe Illustrator 16.0.3, SVG Export Plug-In . SVG Version: 6.00 Build 0)  -->
<!DOCTYPE svg PUBLIC "-//W3C//DTD SVG 1.1//EN" "http://www.w3.org/Graphics/SVG/1.1/DTD/svg11.dtd" [
	<!ENTITY ns_extend "http://ns.adobe.com/Extensibility/1.0/">
	<!ENTITY ns_ai "http://ns.adobe.com/AdobeIllustrator/10.0/">
	<!ENTITY ns_graphs "http://ns.adobe.com/Graphs/1.0/">
	<!ENTITY ns_vars "http://ns.adobe.com/Variables/1.0/">
	<!ENTITY ns_imrep "http://ns.adobe.com/ImageReplacement/1.0/">
	<!ENTITY ns_sfw "http://ns.adobe.com/SaveForWeb/1.0/">
	<!ENTITY ns_custom "http://ns.adobe.com/GenericCustomNamespace/1.0/">
	<!ENTITY ns_adobe_xpath "http://ns.adobe.com/XPath/1.0/">
]>
<svg version="1.1" id="Layer_1" xmlns:x="&ns_extend;" xmlns:i="&ns_ai;" xmlns:graph="&ns_graphs;"
	 xmlns="http://www.w3.org/2000/svg" xmlns:xlink="http://www.w3.org/1999/xlink" x="0px" y="0px" width="221.849px"
	 height="39.667px" viewBox="0 0 221.849 39.667" enable-background="new 0 0 221.849 39.667" xml:space="preserve">
<metadata>
	<sfw  xmlns="&ns_sfw;">
		<slices></slices>
		<sliceSourceBounds  height="48.038" width="224.099" y="-41.346" x="-27.349" bottomLeftOrigin="true"></sliceSourceBounds>
	</sfw>
</metadata>
<g>
</g>
<g>
	<path d="M51.932,22.558v-22.5h4.5v22.5H51.932z"/>
	<path d="M58.682,22.558v-22.5h18c1.242,0,2.297,0.445,3.164,1.336c0.891,0.891,1.336,1.946,1.336,3.164v4.5
		c0,1.266-0.445,2.333-1.336,3.199c-0.891,0.867-1.946,1.301-3.164,1.301h-13.5v9H58.682z M74.432,9.058
		c0.609,0,1.137-0.211,1.582-0.633c0.445-0.445,0.668-0.984,0.668-1.617c0-0.609-0.223-1.137-0.668-1.582
		c-0.445-0.445-0.973-0.668-1.582-0.668h-11.25v4.5H74.432z"/>
	<path d="M83.432,22.558v-22.5h22.5v4.5h-18v4.5h13.5v4.5h-13.5v4.5h18v4.5H83.432z"/>
	<path d="M108.183,22.558v-22.5h18c1.242,0,2.297,0.445,3.164,1.336c0.891,0.891,1.336,1.946,1.336,3.164v4.5
		c0,1.266-0.445,2.333-1.336,3.199c-0.891,0.867-1.945,1.301-3.164,1.301l9,9h-6.75l-13.5-13.5h9c0.609,0,1.137-0.211,1.582-0.633
		c0.445-0.445,0.668-0.984,0.668-1.617c0-0.609-0.223-1.137-0.668-1.582c-0.445-0.445-0.973-0.668-1.582-0.668h-11.25v18H108.183z"
		/>
</g>
<path d="M128.599,22.558"/>
<polygon points="145.016,39.667 119.849,13.808 126.567,13.808 145.016,32.253 145.016,39.281 "/>
<line fill="none" x1="115.099" y1="9" x2="147.057" y2="41.346"/>
<line fill="none" x1="148.599" y1="35.836" x2="122.46" y2="9.701"/>
<polygon points="145.016,39.667 170.183,13.808 163.464,13.808 145.016,32.253 145.016,39.281 "/>
<g>
	<path d="M172.349,36.191v-22.5h18c1.242,0,2.297,0.445,3.164,1.336c0.891,0.891,1.336,1.946,1.336,3.164v4.5
		c0,1.266-0.445,2.333-1.336,3.199c-0.891,0.868-1.945,1.301-3.164,1.301h-13.5v9H172.349z M188.099,22.691
		c0.609,0,1.137-0.211,1.582-0.633c0.445-0.445,0.668-0.984,0.668-1.617c0-0.609-0.223-1.137-0.668-1.582
		c-0.445-0.445-0.973-0.668-1.582-0.668h-11.25v4.5H188.099z"/>
	<path d="M197.099,36.191v-22.5h4.5l15.75,15.75v-15.75h4.5v22.5h-4.5l-15.75-15.75v15.75H197.099z"/>
</g>
<polygon points="25.167,25.859 0,0 6.719,0 25.167,18.445 25.167,25.474 "/>
<polygon points="25.167,25.859 50.334,0 43.615,0 25.167,18.445 25.167,25.474 "/>
<line stroke="#000000" stroke-width="0.05" stroke-miterlimit="10" x1="25.167" y1="18.445" x2="25.167" y2="25.859"/>
<line stroke="#000000" stroke-width="0.08" stroke-miterlimit="10" x1="145.016" y1="32.253" x2="145.016" y2="39.667"/>
<g>
</g>
<g>
</g>
<g>
</g>
<g>
</g>
<g>
</g>
<g>
</g>
</svg>
