<?xml version="1.0" encoding="utf-8"?>
<!-- Generator: Adobe Illustrator 16.0.0, SVG Export Plug-In . SVG Version: 6.00 Build 0)  -->
<!DOCTYPE svg PUBLIC "-//W3C//DTD SVG 1.1//EN" "http://www.w3.org/Graphics/SVG/1.1/DTD/svg11.dtd">
<svg version="1.1" id="Layer_1" xmlns="http://www.w3.org/2000/svg" xmlns:xlink="http://www.w3.org/1999/xlink" x="0px" y="0px"
	 width="221.849px" height="39.667px" viewBox="0 0 221.849 39.667" enable-background="new 0 0 221.849 39.667"
	 xml:space="preserve">
<g>
</g>
<g>
	<path fill="#191919" d="M51.932,22.558v-22.5h4.5v22.5H51.932z"/>
	<path fill="#191919" d="M58.682,22.558v-22.5h18c1.242,0,2.297,0.445,3.164,1.336c0.891,0.891,1.336,1.946,1.336,3.164v4.5
		c0,1.266-0.445,2.333-1.336,3.199c-0.891,0.867-1.946,1.301-3.164,1.301h-13.5v9H58.682z M74.432,9.058
		c0.609,0,1.137-0.211,1.582-0.633c0.445-0.445,0.668-0.984,0.668-1.617c0-0.609-0.223-1.137-0.668-1.582
		c-0.445-0.445-0.973-0.668-1.582-0.668h-11.25v4.5H74.432z"/>
	<path fill="#191919" d="M83.432,22.558v-22.5h22.5v4.5h-18v4.5h13.5v4.5h-13.5v4.5h18v4.5H83.432z"/>
	<path fill="#191919" d="M108.183,22.558v-22.5h18c1.242,0,2.297,0.445,3.164,1.336c0.891,0.891,1.336,1.946,1.336,3.164v4.5
		c0,1.266-0.445,2.333-1.336,3.199c-0.891,0.867-1.945,1.301-3.164,1.301l9,9h-6.75l-13.5-13.5h9c0.609,0,1.137-0.211,1.582-0.633
		c0.445-0.445,0.668-0.984,0.668-1.617c0-0.609-0.223-1.137-0.668-1.582c-0.445-0.445-0.973-0.668-1.582-0.668h-11.25v18H108.183z"
		/>
</g>
<path d="M128.599,22.558"/>
<polygon fill="#191919" points="145.016,39.667 119.849,13.808 126.567,13.808 145.016,32.253 145.016,39.281 "/>
<line fill="none" x1="115.099" y1="9" x2="147.057" y2="41.346"/>
<line fill="none" x1="148.599" y1="35.836" x2="122.46" y2="9.701"/>
<polygon fill="#191919" points="145.016,39.667 170.183,13.808 163.464,13.808 145.016,32.253 145.016,39.281 "/>
<g>
	<path fill="#191919" d="M172.349,36.191v-22.5h18c1.242,0,2.297,0.445,3.164,1.336c0.891,0.891,1.336,1.946,1.336,3.164v4.5
		c0,1.266-0.445,2.333-1.336,3.199c-0.891,0.868-1.945,1.301-3.164,1.301h-13.5v9H172.349z M188.099,22.691
		c0.609,0,1.137-0.211,1.582-0.633c0.445-0.445,0.668-0.984,0.668-1.617c0-0.609-0.223-1.137-0.668-1.582
		c-0.445-0.445-0.973-0.668-1.582-0.668h-11.25v4.5H188.099z"/>
	<path fill="#191919" d="M197.099,36.191v-22.5h4.5l15.75,15.75v-15.75h4.5v22.5h-4.5l-15.75-15.75v15.75H197.099z"/>
</g>
<polygon fill="#191919" points="25.167,25.859 0,0 6.719,0 25.167,18.445 25.167,25.474 "/>
<polygon fill="#231F20" points="25.167,25.859 50.334,0 43.615,0 25.167,18.445 25.167,25.474 "/>
<g>
</g>
<g>
</g>
<g>
</g>
<g>
</g>
<g>
</g>
<g>
</g>
</svg>
